<?xml version="1.0" encoding="UTF-8" standalone="no"?>
<!--?xml version="1.0" encoding="utf-8"?-->

<!-- Generator: Adobe Illustrator 15.1.0, SVG Export Plug-In . SVG Version: 6.00 Build 0)  -->

<svg
   version="1.1"
   id="_x32_"
   x="0px"
   y="0px"
   width="512"
   height="512"
   viewBox="0 0 512 512"
   style="opacity:1"
   xml:space="preserve"
   xmlns="http://www.w3.org/2000/svg"
   xmlns:svg="http://www.w3.org/2000/svg"><defs
   id="defs1" />
<style
   type="text/css"
   id="style1">

	.st0{fill:#4B4B4B;}

</style>
<g
   id="g1"
   style="fill:#f4f4f5;fill-opacity:1">
	<path
   class="st0"
   d="M 256,0 C 245.281,0 234.641,0.641 224.25,2 97.844,17.594 0,125.359 0,256 0,397.438 114.563,512 256,512 335.281,512 406.156,476 453.125,419.359 489.922,375.031 512,318.078 512,256 512,114.641 397.359,0 256,0 Z M 64,256 c 0,-78.25 47.281,-146.734 116.031,-176.344 -9.531,26.813 -14.75,55.641 -14.75,85.703 0,121.641 84.906,223.406 198.641,249.469 C 332.453,436.25 295.031,448 256,448 150.125,448 64,361.875 64,256 Z"
   id="path1"
   style="fill:#f4f4f5;fill-opacity:1" />
</g>
</svg>
