<?xml version="1.0" encoding="UTF-8" standalone="no"?>
<!-- Created with Inkscape (http://www.inkscape.org/) -->

<svg
   width="80mm"
   height="79.999992mm"
   viewBox="0 0 80 79.999992"
   version="1.1"
   id="svg1"
   xmlns="http://www.w3.org/2000/svg"
   xmlns:svg="http://www.w3.org/2000/svg">
  <defs
     id="defs1" />
  <g
     id="layer1"
     transform="translate(-75.000002,-85.000003)">
    <g
       id="g1">
      <path
         id="rect1"
         style="fill:#a01a00;fill-opacity:1;stroke-width:0.264583"
         d="m 105.5,112.4375 c 0,0 -2.52705,-5.93992 -2,-8.9375 1.26491,-7.194181 12,-19.499999 12,-19.499999 V 136 c 0,0 -0.73946,3.50202 -2,4.875 -2.43287,2.64988 -6.44459,4.07994 -10,5.6875 -2.21825,1.00297 -6.999999,2.4375 -6.999999,2.4375 0,0 1.062909,-3.64101 2,-5.6875 1.257239,-2.74564 4.999999,-8.125 4.999999,-8.125 0,0 -5.031556,6.09335 -8.999999,7.3125 C 89.501621,144.03555 78.5,141.6875 78.5,141.6875 c 0,0 4.619148,-8.41716 9.000001,-11.375 C 91.925633,127.32444 101.5,126.25 101.5,126.25 c 0,0 -7.612441,1.14008 -10.999999,0 C 83.967186,124.05139 75.5,114.0625 75.5,114.0625 c 0,0 13.737701,-5.2885 21.000001,-4.875 3.274921,0.18647 8.999999,3.25 8.999999,3.25 z m 20,0 c 0,0 2.52705,-5.93992 2,-8.9375 -1.26491,-7.194181 -12,-19.499999 -12,-19.499999 V 136 c 0,0 0.73946,3.50202 2,4.875 2.43287,2.64988 6.44459,4.07994 10,5.6875 2.21825,1.00297 7,2.4375 7,2.4375 0,0 -1.06291,-3.64101 -2,-5.6875 -1.25724,-2.74564 -5,-8.125 -5,-8.125 0,0 5.03156,6.09335 9,7.3125 4.99838,1.53555 16,-0.8125 16,-0.8125 0,0 -4.61915,-8.41716 -9,-11.375 -4.42563,-2.98806 -14,-4.0625 -14,-4.0625 0,0 7.61244,1.14008 11,0 6.53281,-2.19861 15,-12.1875 15,-12.1875 0,0 -13.7377,-5.2885 -21,-4.875 -3.27492,0.18647 -9,3.25 -9,3.25 z"
         transform="matrix(1,0,0,1.2307692,-0.4999986,-18.38462)" />
    </g>
    <path
       style="fill:#000000;fill-opacity:1;stroke-width:10;stroke-dasharray:none"
       d="M 156,88.999997 115,135"
       id="path1" />
    <path
       style="fill:#000000;stroke:#000000;stroke-width:0.264583;stroke-opacity:1"
       d="M 115,89.999996 V 134"
       id="path2" />
    <path
       style="fill:#000000;stroke:#000000;stroke-width:0.264583;stroke-opacity:1"
       d="m 80,123 35,11 m 35,-11 -35,11"
       id="path3" />
    <path
       style="fill:#000000;stroke:#000000;stroke-width:0.264583;stroke-opacity:1"
       d="M 82.000002,153.99999 C 83,153.99999 115,134 115,134 m 33,19.99999 C 147,153.99999 115,134 115,134"
       id="path4" />
    <path
       style="fill:#000000;stroke:#000000;stroke-width:0.264583;stroke-opacity:1"
       d="M 99.000002,161.99999 115,134 M 131,161.99999 115,134"
       id="path5" />
  </g>
</svg>
